<svg width="20" height="20" viewBox="0 0 20 20" fill="none" xmlns="http://www.w3.org/2000/svg">
<path d="M18.5583 19.7229L11.4354 12.6C10.8938 13.0694 10.2622 13.4351 9.54069 13.6969C8.81921 13.9587 8.05148 14.0896 7.2375 14.0896C5.28457 14.0896 3.63176 13.4125 2.27906 12.0583C0.926352 10.7042 0.25 9.07012 0.25 7.15623C0.25 5.24234 0.927083 3.60832 2.28125 2.25415C3.63542 0.899984 5.27396 0.2229 7.19688 0.2229C9.11979 0.2229 10.7538 0.899984 12.099 2.25415C13.4441 3.60832 14.1167 5.2437 14.1167 7.1603C14.1167 7.93398 13.9903 8.68193 13.7375 9.40415C13.4847 10.1264 13.1056 10.8035 12.6 11.4354L19.75 18.5312L18.5583 19.7229ZM7.21042 12.4646C8.67743 12.4646 9.92439 11.9455 10.9513 10.9073C11.9782 9.86908 12.4917 8.61873 12.4917 7.15623C12.4917 5.69373 11.9782 4.44339 10.9513 3.40519C9.92439 2.367 8.67743 1.8479 7.21042 1.8479C5.72836 1.8479 4.46861 2.367 3.43115 3.40519C2.39372 4.44339 1.875 5.69373 1.875 7.15623C1.875 8.61873 2.39372 9.86908 3.43115 10.9073C4.46861 11.9455 5.72836 12.4646 7.21042 12.4646Z" fill="#404040"/>
</svg>
