<svg width="28" height="32" viewBox="0 0 28 32" fill="none" xmlns="http://www.w3.org/2000/svg">
<path d="M2.75 32C2.15 32 1.625 31.775 1.175 31.325C0.725 30.875 0.5 30.35 0.5 29.75V9.875C0.5 9.275 0.725 8.75 1.175 8.3C1.625 7.85 2.15 7.625 2.75 7.625H6.875C6.875 5.65 7.5375 3.96875 8.8625 2.58125C10.1875 1.19375 11.8375 0.5 13.8125 0.5C15.7875 0.5 17.5 1.19469 18.95 2.58406C20.4 3.97344 21.125 5.65375 21.125 7.625H25.25C25.85 7.625 26.375 7.85 26.825 8.3C27.275 8.75 27.5 9.275 27.5 9.875V29.75C27.5 30.35 27.275 30.875 26.825 31.325C26.375 31.775 25.85 32 25.25 32H2.75ZM2.75 29.75H25.25V9.875H2.75V29.75ZM14 18.875C15.975 18.875 17.6875 18.15 19.1375 16.7C20.5875 15.25 21.3125 13.5375 21.3125 11.5625H19.0625C19.0625 12.9375 18.5625 14.125 17.5625 15.125C16.5625 16.125 15.375 16.625 14 16.625C12.625 16.625 11.4375 16.125 10.4375 15.125C9.4375 14.125 8.9375 12.9375 8.9375 11.5625H6.6875C6.6875 13.5375 7.4125 15.25 8.8625 16.7C10.3125 18.15 12.025 18.875 14 18.875ZM9.125 7.625H18.875C18.875 6.25 18.4062 5.09375 17.4688 4.15625C16.5312 3.21875 15.375 2.75 14 2.75C12.625 2.75 11.4688 3.21875 10.5312 4.15625C9.59375 5.09375 9.125 6.25 9.125 7.625Z" fill="white"/>
</svg>
