<svg width="215" height="29" viewBox="0 0 215 29" fill="none" xmlns="http://www.w3.org/2000/svg">
<path d="M31.6758 29H13.6484C11.7083 29 9.94401 28.6354 8.35547 27.9062C6.76693 27.1771 5.40625 26.181 4.27344 24.918C3.15365 23.6549 2.28776 22.1706 1.67578 20.4648C1.0638 18.7591 0.757812 16.9362 0.757812 14.9961C0.757812 13.069 1.0638 11.2591 1.67578 9.56641C2.28776 7.86068 3.15365 6.3763 4.27344 5.11328C5.40625 3.83724 6.76693 2.83464 8.35547 2.10547C9.94401 1.36328 11.7083 0.992188 13.6484 0.992188H31.6758V4.99609H13.6484C12.2682 4.99609 11.0247 5.26302 9.91797 5.79688C8.82422 6.31771 7.89323 7.03385 7.125 7.94531C6.36979 8.84375 5.78385 9.89844 5.36719 11.1094C4.96354 12.3203 4.76172 13.6159 4.76172 14.9961C4.76172 16.3763 4.96354 17.6784 5.36719 18.9023C5.78385 20.1133 6.36979 21.1745 7.125 22.0859C7.89323 22.9844 8.82422 23.694 9.91797 24.2148C11.0247 24.7357 12.2682 24.9961 13.6484 24.9961H31.6758V29Z" fill="#FF3333"/>
<path d="M59.8203 7.00781V18.0039C59.8203 19.5273 59.5339 20.9596 58.9609 22.3008C58.388 23.6289 57.6003 24.7943 56.5977 25.7969C55.6081 26.7865 54.4492 27.5677 53.1211 28.1406C51.793 28.7135 50.3737 29 48.8633 29H46.6562C45.1458 29 43.7266 28.7135 42.3984 28.1406C41.0703 27.5547 39.9049 26.7669 38.9023 25.7773C37.9128 24.7747 37.1315 23.6094 36.5586 22.2812C35.9857 20.9401 35.6992 19.5143 35.6992 18.0039V7.00781H39.7031V18.0039C39.7031 18.9674 39.8854 19.8789 40.25 20.7383C40.6146 21.5846 41.1094 22.3268 41.7344 22.9648C42.3724 23.5898 43.1081 24.0846 43.9414 24.4492C44.7878 24.8138 45.6927 24.9961 46.6562 24.9961H48.8633C49.8268 24.9961 50.7318 24.8138 51.5781 24.4492C52.4245 24.0846 53.1602 23.5898 53.7852 22.9648C54.4102 22.3268 54.9049 21.5846 55.2695 20.7383C55.6341 19.8789 55.8164 18.9674 55.8164 18.0039V7.00781H59.8203ZM91.2852 22.4375C91.2852 23.349 91.1094 24.2018 90.7578 24.9961C90.4193 25.7904 89.9505 26.487 89.3516 27.0859C88.7526 27.6719 88.0495 28.1406 87.2422 28.4922C86.4479 28.8307 85.5951 29 84.6836 29H71.207V24.957H84.6836C85.0482 24.957 85.3867 24.8919 85.6992 24.7617C86.0117 24.6315 86.2786 24.4557 86.5 24.2344C86.7344 24 86.9167 23.7331 87.0469 23.4336C87.1771 23.1211 87.2422 22.7891 87.2422 22.4375C87.2422 22.0729 87.1771 21.7344 87.0469 21.4219C86.9167 21.1094 86.7344 20.8424 86.5 20.6211C86.2786 20.3867 86.0117 20.2044 85.6992 20.0742C85.3867 19.944 85.0482 19.8789 84.6836 19.8789H71.207V15.8359H81.4023C81.793 15.8229 82.1576 15.7513 82.4961 15.6211C82.8346 15.4909 83.1276 15.3216 83.375 15.1133C83.6354 14.8919 83.8372 14.638 83.9805 14.3516C84.1237 14.0521 84.1953 13.7331 84.1953 13.3945C84.1953 13.043 84.1302 12.724 84 12.4375C83.8698 12.138 83.6875 11.8776 83.4531 11.6562C83.2318 11.4349 82.9648 11.2656 82.6523 11.1484C82.3529 11.0182 82.0273 10.9531 81.6758 10.9531H69.3125V29H65.2305V6.92969H81.6758C82.5742 6.92969 83.4206 7.09896 84.2148 7.4375C85.0221 7.77604 85.7188 8.23828 86.3047 8.82422C86.9036 9.39714 87.3724 10.0807 87.7109 10.875C88.0625 11.6562 88.2383 12.4961 88.2383 13.3945C88.2383 13.9674 88.1602 14.5078 88.0039 15.0156C87.8607 15.5234 87.6589 15.9987 87.3984 16.4414C87.9714 16.7018 88.4922 17.0404 88.9609 17.457C89.4427 17.8607 89.8529 18.3229 90.1914 18.8438C90.543 19.3646 90.8099 19.931 90.9922 20.543C91.1875 21.1419 91.2852 21.7734 91.2852 22.4375ZM99.3906 29H95.4258V7.00781H99.3906V29ZM161.09 29H146.891C145.341 29 143.935 28.7135 142.672 28.1406C141.409 27.5677 140.328 26.7865 139.43 25.7969C138.531 24.7943 137.835 23.6224 137.34 22.2812C136.858 20.9271 136.617 19.4753 136.617 17.9258C136.617 16.3893 136.858 14.957 137.34 13.6289C137.835 12.2878 138.531 11.1224 139.43 10.1328C140.328 9.14323 141.409 8.36198 142.672 7.78906C143.935 7.21615 145.341 6.92969 146.891 6.92969H161.09V10.9531H146.891C145.927 10.9531 145.055 11.1354 144.273 11.5C143.505 11.8646 142.854 12.3594 142.32 12.9844C141.786 13.6094 141.376 14.3451 141.09 15.1914C140.803 16.0378 140.66 16.9492 140.66 17.9258C140.66 18.9154 140.803 19.8398 141.09 20.6992C141.376 21.5456 141.786 22.2878 142.32 22.9258C142.854 23.5508 143.505 24.0456 144.273 24.4102C145.055 24.7747 145.927 24.957 146.891 24.957H161.09V29ZM188.512 29H165.543V6.92969H188.512V10.9531H169.586V24.957H188.512V29ZM185.953 19.8789H171.48V15.8359H185.953V19.8789Z" fill="white"/>
<path d="M134.84 29H129.605L118.648 17.7109L107.73 29H102.477L116.051 14.9961L102.477 0.992188H107.73L134.84 29ZM134.84 0.992188L122.633 13.5508L120.035 10.875L129.605 0.992188H134.84Z" fill="#05FF00"/>
<path d="M214.02 29H192.965V7.00781H196.969V24.9961H214.02V29Z" fill="#3835C2"/>
</svg>
